<?xml version="1.0" encoding="UTF-8" standalone="no"?>
<svg
   xmlns:dc="http://purl.org/dc/elements/1.1/"
   xmlns:cc="http://creativecommons.org/ns#"
   xmlns:rdf="http://www.w3.org/1999/02/22-rdf-syntax-ns#"
   xmlns:svg="http://www.w3.org/2000/svg"
   xmlns="http://www.w3.org/2000/svg"
   xmlns:sodipodi="http://sodipodi.sourceforge.net/DTD/sodipodi-0.dtd"
   xmlns:inkscape="http://www.inkscape.org/namespaces/inkscape"
   version="1.1"
   viewBox="0 0 1600 499.99999"
   stroke-miterlimit="10"
   id="svg3793"
   sodipodi:docname="mountains.svg"
   width="1600"
   height="500"
   style="fill:none;stroke:none;stroke-linecap:square;stroke-miterlimit:10"
   inkscape:version="0.92.5 (2060ec1f9f, 2020-04-08)">
  <metadata
     id="metadata3799">
    <rdf:RDF>
      <cc:Work
         rdf:about="">
        <dc:format>image/svg+xml</dc:format>
        <dc:type
           rdf:resource="http://purl.org/dc/dcmitype/StillImage" />
        <dc:title></dc:title>
      </cc:Work>
    </rdf:RDF>
  </metadata>
  <defs
     id="defs3797" />
  <sodipodi:namedview
     pagecolor="#ffffff"
     bordercolor="#666666"
     borderopacity="1"
     objecttolerance="10"
     gridtolerance="10"
     guidetolerance="10"
     inkscape:pageopacity="0"
     inkscape:pageshadow="2"
     inkscape:window-width="1920"
     inkscape:window-height="1017"
     id="namedview3795"
     showgrid="false"
     inkscape:zoom="0.5952969"
     inkscape:cx="712.76417"
     inkscape:cy="113.96274"
     inkscape:window-x="0"
     inkscape:window-y="26"
     inkscape:window-maximized="1"
     inkscape:current-layer="svg3793" />
  <clipPath
     id="p.0">
    <path
       d="M 0,0 H 961.64307 V 498.29135 H 0 Z"
       id="path3776"
       inkscape:connector-curvature="0"
       style="clip-rule:nonzero" />
  </clipPath>
  <g
     clip-path="url(#p.0)"
     id="g3791"
     transform="matrix(0.96331642,0,0,1,671.93363,5.0683171)">
    <path
       d="M 0,0 H 961.64307 V 498.29135 H 0 Z"
       id="path3779"
       inkscape:connector-curvature="0"
       style="fill:#000000;fill-opacity:0;fill-rule:evenodd" />
    <path
       d="M 0.8267717,498.19684 346.21257,292.74802 691.59843,498.19684 Z"
       id="path3781"
       inkscape:connector-curvature="0"
       style="fill:#000000;fill-rule:evenodd" />
    <path
       d="M 159.84251,498.2047 560.33067,259.9685 960.81889,498.2047 Z"
       id="path3783"
       inkscape:connector-curvature="0"
       style="fill:#000000;fill-rule:evenodd" />
    <path
       d="m 794.53284,57.905513 12.81858,-2.651651 2.7526,-12.348351 2.75266,12.348351 12.81858,2.651651 -12.81858,2.65165 -2.75266,12.348348 -2.7526,-12.348348 z"
       id="path3785"
       inkscape:connector-curvature="0"
       style="fill:#000000;fill-rule:evenodd;stroke-width:1.03241169" />
    <path
       d="m 856.8189,73.144357 12.81856,-2.651649 2.75265,-12.348353 2.75264,12.348353 12.81857,2.651649 -12.81857,2.651649 -2.75264,12.348349 -2.75265,-12.348349 z"
       id="path3787"
       inkscape:connector-curvature="0"
       style="fill:#000000;fill-rule:evenodd;stroke-width:1.1820538" />
    <path
       d="m 673.82169,132.03411 v 0 c 0,-27.61423 23.23817,-50 51.90399,-50 v 0 c 13.76582,0 26.96781,5.267847 36.70173,14.644662 9.73393,9.376818 15.20233,22.094518 15.20233,35.355338 v 0 c 0,27.61424 -23.23817,50 -51.90405,50 v 0 c -28.66582,0 -51.904,-22.38576 -51.904,-50 z"
       id="path3789"
       inkscape:connector-curvature="0"
       style="fill:#000000;fill-rule:evenodd;stroke-width:1.0851692" />
  </g>
</svg>
